<?xml version="1.0" encoding="utf-8"?>
<!-- Generator: Adobe Illustrator 14.0.0, SVG Export Plug-In . SVG Version: 6.00 Build 43363)  -->
<!DOCTYPE svg PUBLIC "-//W3C//DTD SVG 1.1//EN" "http://www.w3.org/Graphics/SVG/1.1/DTD/svg11.dtd">
<svg version="1.1" id="Layer_1" xmlns="http://www.w3.org/2000/svg" xmlns:xlink="http://www.w3.org/1999/xlink" x="0px" y="0px"
	 width="60px" height="30px" viewBox="0 0 60 30" enable-background="new 0 0 60 30" xml:space="preserve">
<g>
	<g>
		<path fill-rule="evenodd" clip-rule="evenodd" fill="#231F20" d="M19.989,2.56C14.943,11.763,9.478,20.546,4.373,29.688
			c-1.447-0.672-2.596-1.637-3.969-2.381C5.529,18.229,10.738,9.235,16.019,0.312C17.462,0.939,18.529,1.948,19.989,2.56z"/>
		<g>
			<g>
				<path fill-rule="evenodd" clip-rule="evenodd" fill="#231F20" d="M49.275,8.426c0.631,0,1.266,0,1.898,0
					c0,3.607,0,7.212,0,10.819c-0.654,0-1.309,0-1.965,0C49.25,15.66,49.121,11.901,49.275,8.426z"/>
				<path fill-rule="evenodd" clip-rule="evenodd" fill="#231F20" d="M31.047,8.688c0.83-0.152,1.691,0.744,1.113,1.705
					c-0.547,0.906-2.219,0.504-2.096-0.787C30.106,9.15,30.379,8.81,31.047,8.688z"/>
				<path fill-rule="evenodd" clip-rule="evenodd" fill="#231F20" d="M23.178,18.655c0,1.574,0,3.146,0,4.72
					c-0.657,0-1.312,0-1.966,0c0-3.737,0-7.476,0-11.212c0.611,0,1.223,0,1.834,0c0.268-0.025,0.073,0.408,0.132,0.59
					c2.452-1.945,5.578-0.072,5.704,2.754c0.116,2.586-2.222,4.839-4.854,3.738C23.742,19.124,23.529,18.892,23.178,18.655z
					 M23.638,14.131c-0.979,0.958-0.648,3.179,0.654,3.604c3.156,1.033,3.552-4.455,0.459-4.13
					c-0.044,0.005-0.065,0.065-0.065,0.065C24.158,13.752,23.894,13.88,23.638,14.131z"/>
				<path fill-rule="evenodd" clip-rule="evenodd" fill="#231F20" d="M47.832,16.36c-1.77,0-3.541,0-5.313,0
					c0.086,1.684,2.922,1.957,3.738,0.72c0.248,0.132,0.314,0.34,0.59,0.59c0.158,0.144,0.652,0.396,0.656,0.525
					c0.012,0.381-1.494,1.081-1.967,1.18c-2.887,0.599-5.148-1.139-5.049-3.802c0.078-2.095,1.686-3.902,4.195-3.607
					C46.723,12.206,47.857,13.849,47.832,16.36z M42.52,14.983c1.094,0,2.188,0,3.277,0C45.813,13.055,42.539,13.157,42.52,14.983z"
					/>
				<path fill-rule="evenodd" clip-rule="evenodd" fill="#231F20" d="M58.387,12.95c-0.248,0.45-0.541,0.857-0.721,1.378
					c-0.627-0.339-1.303-0.876-2.295-0.854c-0.502,0.012-1.121,0.23-1.115,0.657c0.01,0.687,1.457,0.726,2.033,0.853
					c0.797,0.174,1.629,0.414,1.967,0.854c0.438,0.564,0.471,1.719,0.131,2.358c-0.945,1.791-4.846,1.497-6.227,0.327
					c0.176-0.546,0.543-0.895,0.719-1.442c0.67,0.403,1.563,0.907,2.623,0.853c0.504-0.025,1.102-0.227,1.113-0.654
					c0.021-0.673-0.977-0.681-1.506-0.787c-0.623-0.125-1.377-0.293-1.77-0.523c-0.961-0.568-1.297-2.246-0.395-3.215
					C54.164,11.444,57.182,11.909,58.387,12.95z"/>
				<path fill-rule="evenodd" clip-rule="evenodd" fill="#231F20" d="M32.16,12.163c0,2.361,0,4.719,0,7.082
					c-0.656,0-1.31,0-1.966,0c0.044-2.34-0.088-4.852,0.064-7.082C30.894,12.163,31.527,12.163,32.16,12.163z"/>
				<path fill-rule="evenodd" clip-rule="evenodd" fill="#231F20" d="M33.08,12.229c0.635-0.153,1.549-0.022,2.293-0.065
					c0.471,0.774,0.98,1.514,1.51,2.23c0.518-0.727,1.014-1.477,1.506-2.23c0.723,0,1.445,0,2.164,0
					c-0.789,1.198-1.723,2.255-2.49,3.475c0.77,1.242,1.92,2.451,2.557,3.607c-0.742,0-1.486,0-2.23,0
					c-0.488-0.801-1.102-1.479-1.572-2.297c-0.596,0.719-1.117,1.508-1.639,2.297c-0.723,0-1.443,0-2.164,0
					c0.828-1.204,1.721-2.344,2.623-3.477C34.813,14.562,33.971,13.371,33.08,12.229z"/>
			</g>
		</g>
	</g>
</g>
</svg>
