<?xml version="1.0" encoding="utf-8"?>
<!-- Generator: Adobe Illustrator 14.0.0, SVG Export Plug-In . SVG Version: 6.00 Build 43363)  -->
<!DOCTYPE svg PUBLIC "-//W3C//DTD SVG 1.1//EN" "http://www.w3.org/Graphics/SVG/1.1/DTD/svg11.dtd">
<svg version="1.1" id="Layer_1" xmlns="http://www.w3.org/2000/svg" xmlns:xlink="http://www.w3.org/1999/xlink" x="0px" y="0px"
	 width="20px" height="20px" viewBox="0 0 20 20" enable-background="new 0 0 20 20" xml:space="preserve">
<path fill="#231F20" d="M19.627,16.482l-5.298-5.212c-0.302-0.345-0.86-0.345-1.206,0L12.394,12l-1.581-1.581
	c1.04-1.139,1.621-2.601,1.621-4.145c0-1.637-0.646-3.188-1.807-4.351C9.462,0.76,7.912,0.115,6.275,0.115
	c-1.637,0-3.188,0.645-4.351,1.808c-1.163,1.164-1.81,2.714-1.81,4.351c0,1.637,0.646,3.187,1.81,4.351
	c1.164,1.161,2.714,1.808,4.351,1.808c1.441,0,2.815-0.503,3.917-1.415l1.591,1.592l-0.556,0.556c-0.345,0.344-0.345,0.863,0,1.207
	l5.253,5.252c0.173,0.174,0.387,0.262,0.604,0.262c0.216,0,0.432-0.088,0.646-0.305l1.896-1.895
	C19.972,17.343,19.972,16.826,19.627,16.482z M2.528,10.064c-0.99-0.99-1.552-2.327-1.552-3.748c0-1.422,0.562-2.757,1.552-3.747
	c0.99-0.991,2.325-1.549,3.748-1.549c1.377,0,2.757,0.558,3.746,1.549c0.993,0.99,1.551,2.325,1.551,3.747
	c0,1.421-0.559,2.757-1.551,3.748c-0.989,0.991-2.325,1.551-3.746,1.551C4.853,11.615,3.518,11.056,2.528,10.064z M17.13,19.023
	l-5.255-5.255l1.895-1.896l5.255,5.257L17.13,19.023z"/>
</svg>
